<svg width="65" height="65" viewBox="0 0 65 65" fill="none" xmlns="http://www.w3.org/2000/svg">
<path d="M8.125 65C5.97012 65 3.90349 64.144 2.37976 62.6202C0.856024 61.0965 0 59.0299 0 56.875V8.125C0 5.97012 0.856024 3.90349 2.37976 2.37976C3.90349 0.856024 5.97012 0 8.125 0L56.875 0C59.0299 0 61.0965 0.856024 62.6202 2.37976C64.144 3.90349 65 5.97012 65 8.125V56.875C65 59.0299 64.144 61.0965 62.6202 62.6202C61.0965 64.144 59.0299 65 56.875 65H8.125ZM34.5312 46.7188V23.1847L43.2494 31.9069C43.4382 32.0957 43.6624 32.2455 43.9092 32.3478C44.1559 32.45 44.4204 32.5026 44.6875 32.5026C44.9546 32.5026 45.2191 32.45 45.4658 32.3478C45.7126 32.2455 45.9368 32.0957 46.1256 31.9069C46.3145 31.718 46.4643 31.4938 46.5665 31.2471C46.6687 31.0003 46.7213 30.7358 46.7213 30.4688C46.7213 30.2017 46.6687 29.9372 46.5665 29.6904C46.4643 29.4437 46.3145 29.2195 46.1256 29.0306L33.9381 16.8431C33.7494 16.654 33.5253 16.5039 33.2785 16.4015C33.0317 16.2991 32.7672 16.2464 32.5 16.2464C32.2328 16.2464 31.9683 16.2991 31.7215 16.4015C31.4747 16.5039 31.2506 16.654 31.0619 16.8431L18.8744 29.0306C18.493 29.412 18.2787 29.9293 18.2787 30.4688C18.2787 31.0082 18.493 31.5255 18.8744 31.9069C19.2558 32.2883 19.7731 32.5026 20.3125 32.5026C20.8519 32.5026 21.3692 32.2883 21.7506 31.9069L30.4688 23.1847V46.7188C30.4688 47.2575 30.6828 47.7741 31.0637 48.1551C31.4446 48.536 31.9613 48.75 32.5 48.75C33.0387 48.75 33.5554 48.536 33.9363 48.1551C34.3172 47.7741 34.5312 47.2575 34.5312 46.7188Z" fill="black"/>
</svg>
