<svg width="44" height="44" viewBox="0 0 44 44" fill="none" xmlns="http://www.w3.org/2000/svg">
<path d="M38 0H6C4.4087 0 2.88258 0.632141 1.75736 1.75736C0.632141 2.88258 0 4.4087 0 6L0 38C0 39.5913 0.632141 41.1174 1.75736 42.2426C2.88258 43.3679 4.4087 44 6 44H38C39.5913 44 41.1174 43.3679 42.2426 42.2426C43.3679 41.1174 44 39.5913 44 38V6C44 4.4087 43.3679 2.88258 42.2426 1.75736C41.1174 0.632141 39.5913 0 38 0V0ZM26.3125 35.1375C25.6075 35.2725 25.3675 34.8475 25.3675 34.495C25.3675 34.055 25.385 32.6025 25.385 30.795C25.385 29.5275 24.9375 28.7 24.4575 28.295C27.515 27.9625 30.73 26.82 30.73 21.63C30.7503 20.2826 30.2445 18.9804 29.32 18C29.4575 17.6575 29.9225 16.2825 29.1825 14.4225C29.1825 14.4225 28.0325 14.06 25.4325 15.8075C23.181 15.2008 20.809 15.2008 18.5575 15.8075C15.9275 14.0575 14.775 14.4225 14.775 14.4225C14.025 16.2875 14.5 17.6625 14.6425 18C13.7158 18.9774 13.208 20.2783 13.2275 21.625C13.2275 26.8 16.4375 27.9625 19.4775 28.3C18.979 28.7778 18.67 29.4198 18.6075 30.1075C17.82 30.4525 15.8275 31.05 14.6075 28.985C14.6075 28.985 13.8825 27.685 12.5025 27.5925C12.5025 27.5925 11.16 27.575 12.405 28.4125C12.405 28.4125 13.31 28.83 13.935 30.3875C13.935 30.3875 14.7425 33.015 18.5675 32.2025C18.5675 33.3275 18.5825 34.1775 18.5825 34.5C18.5825 34.8225 18.3325 35.275 17.645 35.1475C12.19 33.3675 8.25 28.305 8.25 22.335C8.25 14.8725 14.4025 8.835 22 8.835C29.5975 8.835 35.75 14.885 35.75 22.3475C35.75 28.295 31.815 33.3625 26.3125 35.1375Z" fill="black"/>
</svg>
