<svg width="72" height="72" viewBox="0 0 72 72" fill="none" xmlns="http://www.w3.org/2000/svg">
<rect width="72" height="72" fill="black"/>
<path d="M28.1 57L19.45 41.95L15.25 47.15V57H7.2V22H15.25V36.8L25.95 22H35.4L24.7 35.35L37.05 57H28.1ZM40.8426 22H52.9426C57.1426 22 60.3259 22.9667 62.4926 24.9C64.6926 26.8 65.7926 29.6167 65.7926 33.35C65.7926 37.2833 64.6759 40.2667 62.4426 42.3C60.2426 44.3333 56.9926 45.35 52.6926 45.35H48.8926V57H40.8426V22ZM53.2426 39C54.7759 39 55.9426 38.5333 56.7426 37.6C57.5426 36.6667 57.9426 35.3167 57.9426 33.55C57.9426 31.85 57.5092 30.5667 56.6426 29.7C55.8092 28.8333 54.5592 28.4 52.8926 28.4H48.8926V39H53.2426Z" fill="#B9CACE"/>
</svg>
