<svg width="84" height="84" viewBox="0 0 84 84" fill="none" xmlns="http://www.w3.org/2000/svg">
<path d="M56 44.8V39.2H61.6V44.8H56Z" fill="black"/>
<path fill-rule="evenodd" clip-rule="evenodd" d="M42 2.35753L78.4 23.5927V60.4071L42 81.6479L5.59998 60.4071V23.5927L42 2.35193V2.35753ZM35.4592 22.3999C30.5104 22.3999 25.7644 24.3658 22.2651 27.8651C18.7659 31.3644 16.8 36.1104 16.8 41.0591V42.9407C16.8007 46.1203 17.614 49.247 19.1626 52.024C20.7112 54.8011 22.9437 57.1363 25.6484 58.8081C28.353 60.4799 31.44 61.4328 34.6164 61.5765C37.7927 61.7201 40.9531 61.0496 43.7976 59.6287L46.0544 58.5087L43.5456 53.4967L41.2944 54.6167C39.3045 55.6123 37.0931 56.0827 34.8703 55.9833C32.6475 55.8839 30.4869 55.2179 28.5939 54.0487C26.7008 52.8794 25.138 51.2456 24.054 49.3025C22.9699 47.3594 22.4006 45.1714 22.4 42.9463V41.0647C22.4002 38.8393 22.9692 36.6509 24.0528 34.7071C25.1365 32.7633 26.6989 31.1287 28.5918 29.9584C30.4846 28.7882 32.6452 28.121 34.8683 28.0203C37.0915 27.9196 39.3035 28.3887 41.2944 29.3831L43.5456 30.5087L46.0544 25.5023L43.7976 24.3767C41.2074 23.079 38.3507 22.4022 35.4536 22.3999H35.4592ZM50.4 27.9999V33.5999H44.8V39.1999H50.4V44.7999H44.8V50.3999H50.4V55.9999H56V50.3999H61.6V55.9999H67.2V50.3999H72.8V44.7999H67.2V39.1999H72.8V33.5999H67.2V27.9999H61.6V33.5999H56V27.9999H50.4Z" fill="black"/>
</svg>
