<svg width="75" height="75" viewBox="0 0 75 75" fill="none" xmlns="http://www.w3.org/2000/svg">
<path d="M15.8749 0H19.2561V3.34063H22.3499V0H25.7311V10.1125H22.3499V6.72813H19.2561V10.1125H15.878V0H15.8749Z" fill="black"/>
<path d="M30.175 3.35312H27.2V0H36.5343V3.35312H33.5562V10.1125H30.175V3.35312Z" fill="black"/>
<path d="M38.0157 0H41.5407L43.7095 3.55312L45.8751 0H49.4001V10.1125H46.0345V5.1L43.7095 8.69687H43.6501L41.322 5.10313V10.1125H38.0157V0Z" fill="black"/>
<path d="M51.0812 0H54.4656V6.77188H59.2155V10.1156H51.0812V0Z" fill="black"/>
<path fill-rule="evenodd" clip-rule="evenodd" d="M15.7688 68.975L9.375 14.7406H65.625L59.2281 68.9687L37.4688 75L15.7688 68.975ZM28.6969 39.2875L28.0906 32.475H53.5438L54.1375 25.825H20.825L22.6187 45.9406H45.6719L44.9 54.5656L37.4813 56.5719H37.475L30.0687 54.5718L29.5938 49.2687H22.9125L23.8438 59.7125L37.4688 63.4937L51.1156 59.7125L52.7781 41.075L52.9406 39.2906H28.6969V39.2875Z" fill="black"/>
</svg>
