<svg width="80" height="80" viewBox="0 0 80 80" fill="none" xmlns="http://www.w3.org/2000/svg">
<g clip-path="url(#clip0)">
<path d="M65.9923 63.6741L51.7447 39.7979L65.9923 15.9216L72.9644 39.7979L65.9923 63.6741ZM34.4849 61.3559L16.5833 43.7752H45.1109L59.3585 67.6514L34.4849 61.3559ZM34.4849 17.9016L59.3585 11.6061L45.1109 35.4823H16.245C16.245 35.8206 34.4849 17.9016 34.4849 17.9016ZM70.9671 0L38.4796 8.2904L33.5048 16.5808H23.8762L0 39.7954L23.8762 63.01H33.5048L38.1413 71.3004L70.6462 79.5908L79.26 48.0833L74.6235 39.7929L79.5982 31.5025L70.9671 0Z" fill="black"/>
</g>
<defs>
<clipPath id="clip0">
<rect width="79.5957" height="79.5957" fill="white"/>
</clipPath>
</defs>
</svg>
