<svg width="79" height="79" viewBox="0 0 79 79" fill="none" xmlns="http://www.w3.org/2000/svg">
<path d="M57.8626 0.231998C56.6158 0.219654 55.3938 0.668967 54.468 1.51822C54.4162 1.57006 54.352 1.6219 54.3002 1.67375L28.082 30.6692L12.7684 18.1206L11.4303 16.9627C10.9674 16.5804 10.4089 16.3317 9.81511 16.2434C9.22127 16.155 8.61459 16.2305 8.06047 16.4616C8.04812 16.4616 8.03578 16.4739 8.02097 16.4739L2.04165 18.9427C1.96512 18.9822 1.87378 19.0192 1.79725 19.0587C1.74306 19.0915 1.687 19.1212 1.62937 19.1476L1.51334 19.2241C1.4615 19.2636 1.39731 19.3006 1.34547 19.3401C1.32078 19.3648 1.28128 19.392 1.25659 19.4167C1.20475 19.4562 1.1529 19.4932 1.11587 19.5327C1.06403 19.5722 1.027 19.6092 0.987498 19.6487C0.962811 19.6734 0.923311 19.7129 0.883811 19.7647C0.845876 19.8003 0.811177 19.8391 0.780123 19.8808L0.664092 20.0363C0.635088 20.0682 0.609442 20.1029 0.587561 20.14C0.548061 20.1918 0.511029 20.256 0.471529 20.3079C0.459186 20.3474 0.432029 20.3844 0.407342 20.4239C0.382654 20.4757 0.355498 20.5276 0.330811 20.5918L0.266623 20.7325C0.254279 20.7843 0.227123 20.8362 0.214779 20.888C0.191979 20.9379 0.174598 20.99 0.162936 21.0436C0.138379 21.1013 0.120968 21.1618 0.111092 21.2238L0.0715918 21.3522C0.0715918 21.404 0.059248 21.4682 0.0469043 21.5324C0.0469043 21.5842 0.0345605 21.6361 0.0345605 21.7003C0.0222168 21.7891 0.0222168 21.8805 0.0222168 21.9693V57.0453C0.0222168 58.3686 0.819623 59.5659 2.04165 60.0671L8.02097 62.5877C9.16647 63.0642 10.4897 62.8444 11.4278 62.047L12.7659 60.8892L28.0796 48.3405L54.2977 77.336C54.3742 77.4125 54.4656 77.4915 54.5421 77.5557C54.6063 77.6076 54.6705 77.6718 54.7346 77.7236C54.7865 77.7754 54.8507 77.8125 54.9149 77.8643C54.9914 77.9162 55.0556 77.9532 55.1198 78.005C55.1963 78.0445 55.2753 78.0939 55.3395 78.1334L55.5592 78.2494L55.7789 78.3531C55.8555 78.3926 55.9345 78.4173 56.011 78.442C56.0875 78.4815 56.1789 78.5062 56.2554 78.5309C56.3196 78.5556 56.3961 78.5704 56.4751 78.5951C56.5541 78.6198 56.643 78.6469 56.7319 78.6593C56.8084 78.6716 56.8874 78.6988 56.9639 78.7111C57.0405 78.7234 57.1195 78.7358 57.2083 78.7358C57.2849 78.7481 57.3762 78.7605 57.4527 78.7605C57.5293 78.7605 57.6083 78.7728 57.6972 78.7728H57.9416C58.0304 78.7728 58.1218 78.7605 58.1983 78.7605C58.2708 78.7468 58.3443 78.7386 58.418 78.7358C58.5823 78.713 58.7454 78.6825 58.9068 78.6444C58.9957 78.6198 59.0871 78.6049 59.1759 78.5679C59.2401 78.5556 59.3167 78.5284 59.3957 78.5037C59.4747 78.479 59.5512 78.4519 59.6277 78.4149L59.924 78.2988L76.1906 70.4679C76.7831 70.184 77.3213 69.7866 77.7459 69.2854C77.8619 69.1694 77.9508 69.041 78.0545 68.9126C78.0545 68.9126 78.0545 68.9003 78.0668 68.8879C78.2415 68.6348 78.3959 68.3681 78.5285 68.0905C78.5408 68.0658 78.5408 68.051 78.5532 68.0264C78.605 67.9103 78.6568 67.7943 78.6939 67.6783L78.7334 67.5499C78.7729 67.4339 78.8099 67.3178 78.8371 67.2018C78.8494 67.1623 78.8617 67.1253 78.8617 67.0858C78.8864 66.9697 78.9012 66.8537 78.9259 66.7525C78.9281 66.6958 78.9364 66.6395 78.9506 66.5846C78.9506 66.4809 78.963 66.392 78.963 66.2884C78.9753 66.1995 78.9753 66.1081 78.9753 66.0316V12.993V12.8769C78.9753 12.7214 78.963 12.556 78.9506 12.3881C78.8511 11.5663 78.5455 10.7829 78.062 10.1109C77.5786 9.43887 76.9332 8.89997 76.1856 8.54428L59.919 0.725748C59.2809 0.417336 58.5836 0.250587 57.8749 0.236936L57.8626 0.231998ZM59.2377 22.784V56.2159L38.8458 39.4999L59.2377 22.784ZM9.88734 28.2227L20.0833 39.4999L9.88734 50.7772V28.2227Z" fill="black"/>
</svg>
